<?xml version="1.0" standalone="no"?>
<!DOCTYPE svg PUBLIC "-//W3C//DTD SVG 20010904//EN"
 "http://www.w3.org/TR/2001/REC-SVG-20010904/DTD/svg10.dtd">
<svg version="1.0" xmlns="http://www.w3.org/2000/svg"
 width="170.000000pt" height="36.000000pt" viewBox="0 0 170.000000 36.000000"
 preserveAspectRatio="xMidYMid meet">
<metadata>
Created by potrace 1.13, written by Peter Selinger 2001-2015
</metadata>
<g transform="translate(0.000000,36.000000) scale(0.100000,-0.100000)"
fill="#000000" stroke="none">
<path d="M13 284 c2 -36 10 -71 16 -77 6 -6 11 -21 11 -34 0 -14 6 -23 15 -23
12 0 15 -15 15 -75 l0 -75 30 0 30 0 0 75 c0 60 3 75 15 75 9 0 15 9 15 25 0
14 5 25 10 25 6 0 10 11 10 25 0 14 5 25 10 25 6 0 10 23 10 50 0 49 -1 50
-30 50 -29 0 -30 -1 -30 -50 0 -27 -4 -50 -10 -50 -5 0 -10 -11 -10 -25 0 -18
-5 -25 -20 -25 -15 0 -20 7 -20 24 0 14 -4 28 -10 31 -5 3 -10 26 -10 51 0 41
-2 44 -26 44 -27 0 -27 0 -21 -66z"/>
<path d="M639 278 c-1 -40 -4 -63 -6 -50 -4 19 -11 22 -49 22 -40 0 -44 -2
-44 -25 0 -16 -6 -25 -15 -25 -8 0 -15 -9 -15 -19 0 -11 -4 -23 -10 -26 -5 -3
-10 -17 -10 -31 0 -13 5 -24 10 -24 6 0 10 -11 10 -25 0 -16 6 -25 15 -25 9 0
15 -9 15 -25 0 -23 4 -25 44 -25 41 0 45 2 49 28 l4 27 2 -27 c1 -24 5 -28 31
-28 l30 0 0 175 0 175 -30 0 -30 0 -1 -72z"/>
<path d="M1002 305 c0 -25 4 -47 9 -51 5 -3 9 -16 9 -30 0 -13 5 -24 10 -24 6
0 10 -11 10 -25 0 -16 6 -25 15 -25 12 0 15 -15 15 -75 l0 -75 30 0 30 0 0 75
c0 60 3 75 15 75 9 0 15 9 15 24 0 13 5 26 10 28 6 2 13 36 17 76 l6 72 -27 0
c-24 0 -26 -3 -26 -44 0 -25 -4 -48 -10 -51 -5 -3 -10 -17 -10 -31 0 -17 -5
-24 -20 -24 -15 0 -20 7 -20 25 0 14 -4 25 -10 25 -5 0 -10 23 -10 50 0 49 -1
50 -29 50 -28 0 -29 -2 -29 -45z"/>
<path d="M290 225 c0 -23 4 -25 46 -25 41 0 45 -2 42 -22 -3 -20 -10 -23 -50
-26 -39 -3 -48 -7 -48 -22 0 -10 -4 -22 -10 -25 -5 -3 -10 -17 -10 -31 0 -13
5 -24 10 -24 6 0 10 -11 10 -25 0 -23 3 -25 50 -25 48 0 50 1 51 28 l1 27 7
-25 c5 -18 15 -26 34 -28 23 -3 27 0 27 22 0 14 -4 28 -10 31 -5 3 -10 37 -10
76 0 55 -3 69 -15 69 -9 0 -15 9 -15 25 0 24 -3 25 -55 25 -52 0 -55 -1 -55
-25z"/>
<path d="M790 225 c0 -22 4 -25 40 -25 36 0 40 -2 40 -25 0 -23 -3 -25 -49
-25 l-49 0 -6 -42 c-3 -24 -2 -56 2 -73 8 -28 12 -30 59 -33 50 -3 52 -2 56
25 l4 28 2 -27 c1 -24 5 -28 31 -28 25 0 30 4 30 24 0 14 -4 28 -10 31 -5 3
-10 37 -10 76 0 55 -3 69 -15 69 -9 0 -15 9 -15 25 0 24 -3 25 -55 25 -52 0
-55 -1 -55 -25z"/>
<path d="M1290 225 c0 -22 4 -25 40 -25 36 0 40 -2 40 -25 0 -23 -3 -25 -49
-25 l-49 0 -6 -42 c-3 -24 -2 -56 2 -73 8 -28 12 -30 59 -33 50 -3 52 -2 56
25 l4 28 2 -27 c1 -24 5 -28 31 -28 25 0 30 4 30 24 0 14 -4 28 -10 31 -5 3
-10 37 -10 76 0 55 -3 69 -15 69 -9 0 -15 9 -15 25 0 24 -3 25 -55 25 -52 0
-55 -1 -55 -25z"/>
<path d="M1540 229 c0 -12 -8 -23 -19 -26 -37 -10 -37 -141 1 -150 11 -3 18
-14 18 -29 0 -23 3 -24 60 -24 57 0 60 1 60 25 0 16 6 25 15 25 9 0 15 9 15
25 0 34 -47 37 -52 3 -2 -19 -10 -24 -40 -26 -35 -3 -38 -1 -38 22 0 14 -4 28
-10 31 -5 3 -10 15 -10 26 0 10 5 19 10 19 6 0 10 11 10 25 0 23 4 25 40 25
36 0 40 -2 40 -25 0 -20 5 -25 25 -25 20 0 25 5 25 25 0 16 -6 25 -15 25 -9 0
-15 9 -15 25 0 24 -3 25 -60 25 -54 0 -60 -2 -60 -21z"/>
</g>
</svg>
